<?xml version="1.0" encoding="UTF-8"?>
<svg id="Ebene_2" data-name="Ebene 2" xmlns="http://www.w3.org/2000/svg" viewBox="0 0 882.39 129.04">
  <g id="Ebene_2-2" data-name="Ebene 2">
    <rect x="142.47" y="44.22" width="22.83" height="72.24" rx="11.41" ry="11.41" fill="#fff"/>
    <rect x="142.47" y="15.1" width="22.83" height="22.83" rx="11.41" ry="11.41" fill="#008973"/>
    <rect x="195.15" y="15.1" width="22.83" height="101.37" rx="11.41" ry="11.41" fill="#fff"/>
    <rect x="228.43" y="2.99" width="22.83" height="126.38" rx="11.41" ry="11.41" transform="translate(13.57 169.65) rotate(-40)" fill="#fff"/>
    <rect x="261.9" y="44.22" width="22.83" height="72.24" rx="11.41" ry="11.41" fill="#fff"/>
    <rect x="341.66" y="15.58" width="22.83" height="101.37" rx="11.41" ry="11.41" fill="#fff"/>
    <rect x="325.43" y="-.66" width="22.83" height="55.29" rx="11.41" ry="11.41" transform="translate(309.85 363.83) rotate(-90)" fill="#fff"/>
    <rect x="374.12" y="15.58" width="22.83" height="22.83" rx="11.41" ry="11.41" fill="#008973"/>
    <rect x="261.9" y="15.1" width="22.83" height="22.83" rx="11.41" ry="11.41" fill="#008973"/>
    <rect x="433.73" y="12.97" width="22.83" height="106.42" rx="11.41" ry="11.41" transform="translate(4.21 156.24) rotate(-20)" fill="#fff"/>
    <rect x="462.31" y="13.05" width="22.83" height="106.42" rx="11.41" ry="11.41" transform="translate(896.21 290.54) rotate(-160)" fill="#fff"/>
    <rect x="490.86" y="13.05" width="22.83" height="106.42" rx="11.41" ry="11.41" transform="translate(7.63 175.78) rotate(-20)" fill="#fff"/>
    <rect x="514.37" y="41.98" width="22.83" height="76.6" rx="11.41" ry="11.41" transform="translate(992.4 335.54) rotate(-160)" fill="#fff"/>
    <rect x="533.94" y="15.1" width="22.83" height="22.83" rx="11.41" ry="11.41" fill="#008973"/>
    <rect x="585.98" y="15.1" width="22.83" height="101.37" rx="11.41" ry="11.41" fill="#fff"/>
    <rect x="610.75" y="68.87" width="22.83" height="72.37" rx="11.41" ry="11.41" transform="translate(517.11 727.21) rotate(-90)" fill="#fff"/>
    <rect x="610.75" y="27.94" width="22.83" height="72.37" rx="11.41" ry="11.41" transform="translate(558.04 686.29) rotate(-90)" fill="#fff"/>
    <rect x="635.51" y="15.1" width="22.83" height="22.83" rx="11.41" ry="11.41" fill="#008973"/>
    <rect x="596.17" y="4.91" width="22.83" height="43.22" rx="11.41" ry="11.41" transform="translate(581.07 634.1) rotate(-90)" fill="#fff"/>
    <rect x="695.16" y="15.5" width="22.83" height="101.37" rx="11.41" ry="11.41" fill="#fff"/>
    <rect x="719.93" y="69.26" width="22.83" height="72.37" rx="11.41" ry="11.41" transform="translate(625.9 836.79) rotate(-90)" fill="#fff"/>
    <rect x="719.93" y="28.34" width="22.83" height="72.37" rx="11.41" ry="11.41" transform="translate(666.82 795.86) rotate(-90)" fill="#fff"/>
    <rect x="744.7" y="15.5" width="22.83" height="22.83" rx="11.41" ry="11.41" fill="#008973"/>
    <rect x="705.36" y="5.3" width="22.83" height="43.22" rx="11.41" ry="11.41" transform="translate(689.86 743.68) rotate(-90)" fill="#fff"/>
    <rect x="827.1" y="15.58" width="22.83" height="101.37" rx="11.41" ry="11.41" fill="#fff"/>
    <rect x="810.87" y="-.66" width="22.83" height="55.29" rx="11.41" ry="11.41" transform="translate(795.29 849.27) rotate(-90)" fill="#fff"/>
    <rect x="859.56" y="15.58" width="22.83" height="22.83" rx="11.41" ry="11.41" fill="#008973"/>
    <g>
      <path d="m104.7,82.96c-4.85,11.12-13.78,20.06-24.9,24.91-1.12.49-1.85,1.58-1.85,2.81h0c0,2.2,2.25,3.68,4.27,2.81,12.55-5.47,22.63-15.55,28.1-28.11.88-2.01-.61-4.27-2.81-4.27h0c-1.22,0-2.32.73-2.81,1.85Z" fill="#008973"/>
      <path d="m77.95,16.85h0c0,1.22.73,2.32,1.85,2.81,11.12,4.85,20.06,13.78,24.91,24.9.49,1.12,1.58,1.85,2.81,1.85h0c2.2,0,3.68-2.25,2.81-4.27-5.47-12.55-15.55-22.63-28.11-28.1-2.01-.88-4.27.61-4.27,2.81Z" fill="#008973"/>
      <path d="m13.69,81.11h0c-2.2,0-3.68,2.25-2.81,4.27,5.47,12.56,15.55,22.64,28.1,28.11,2.01.88,4.27-.61,4.27-2.81h0c0-1.22-.73-2.32-1.85-2.81-11.12-4.85-20.05-13.78-24.9-24.91-.49-1.12-1.58-1.85-2.81-1.85Z" fill="#008973"/>
      <path d="m13.69,46.41h0c1.22,0,2.32-.73,2.81-1.85,4.85-11.12,13.78-20.06,24.9-24.91,1.12-.49,1.85-1.58,1.85-2.81h0c0-2.2-2.25-3.68-4.27-2.81-12.55,5.47-22.63,15.55-28.1,28.11-.88,2.01.61,4.27,2.81,4.27Z" fill="#008973"/>
    </g>
    <g>
      <path d="m10.72,63.09c3.38,0,6.13-2.74,6.13-6.13s-2.75-6.13-6.13-6.13-6.13,2.74-6.13,6.13,2.75,6.13,6.13,6.13Zm0-9.19c1.69,0,3.06,1.37,3.06,3.06s-1.37,3.06-3.06,3.06-3.06-1.37-3.06-3.06,1.37-3.06,3.06-3.06Z" fill="#008973"/>
      <path d="m10.72,66.14c-5.92,0-10.72,4.8-10.72,10.72,0,.85.68,1.53,1.53,1.53s1.53-.68,1.53-1.53c0-4.23,3.43-7.65,7.65-7.65s7.66,3.43,7.66,7.66c0,.85.68,1.53,1.53,1.53s1.53-.68,1.53-1.53c0-5.92-4.79-10.72-10.71-10.72Z" fill="#008973"/>
    </g>
    <g>
      <path d="m110.35,61.56c3.38,0,6.13-2.74,6.13-6.13s-2.75-6.13-6.13-6.13-6.13,2.74-6.13,6.13,2.75,6.13,6.13,6.13Zm0-9.19c1.69,0,3.06,1.37,3.06,3.06s-1.37,3.06-3.06,3.06-3.06-1.37-3.06-3.06,1.37-3.06,3.06-3.06Z" fill="#008973"/>
      <path d="m110.35,64.62c-5.92,0-10.72,4.8-10.72,10.72,0,.85.68,1.53,1.53,1.53s1.53-.68,1.53-1.53c0-4.23,3.43-7.65,7.65-7.65s7.66,3.43,7.66,7.66c0,.85.68,1.53,1.53,1.53s1.53-.68,1.53-1.53c0-5.92-4.79-10.72-10.71-10.72Z" fill="#008973"/>
    </g>
    <g>
      <path d="m62.16,113.73c3.38,0,6.13-2.74,6.13-6.13s-2.75-6.13-6.13-6.13-6.13,2.74-6.13,6.13,2.75,6.13,6.13,6.13Zm0-9.19c1.69,0,3.06,1.37,3.06,3.06s-1.37,3.06-3.06,3.06-3.06-1.37-3.06-3.06,1.37-3.06,3.06-3.06Z" fill="#008973"/>
      <path d="m62.16,116.79c-5.92,0-10.72,4.8-10.72,10.72,0,.85.68,1.53,1.53,1.53s1.53-.68,1.53-1.53c0-4.23,3.43-7.65,7.65-7.65s7.66,3.43,7.66,7.66c0,.85.68,1.53,1.53,1.53s1.53-.68,1.53-1.53c0-5.92-4.79-10.72-10.71-10.72Z" fill="#008973"/>
    </g>
    <g>
      <path d="m62.16,12.25c3.38,0,6.13-2.74,6.13-6.13s-2.75-6.13-6.13-6.13-6.13,2.74-6.13,6.13,2.75,6.13,6.13,6.13Zm0-9.19c1.69,0,3.06,1.37,3.06,3.06s-1.37,3.06-3.06,3.06-3.06-1.37-3.06-3.06,1.37-3.06,3.06-3.06Z" fill="#008973"/>
      <path d="m62.16,15.31c-5.92,0-10.72,4.8-10.72,10.72,0,.85.68,1.53,1.53,1.53s1.53-.68,1.53-1.53c0-4.23,3.43-7.65,7.65-7.65s7.66,3.43,7.66,7.66c0,.85.68,1.53,1.53,1.53s1.53-.68,1.53-1.53c0-5.92-4.79-10.72-10.71-10.72Z" fill="#008973"/>
    </g>
    <g>
      <rect x="57.31" y="50.13" width="9.7" height="43.07" rx="4.85" ry="4.85" fill="#008973"/>
      <rect x="50.41" y="43.23" width="9.7" height="23.5" rx="4.85" ry="4.85" transform="translate(.28 110.24) rotate(-90)" fill="#008973"/>
      <rect x="64.21" y="43.23" width="9.7" height="23.5" rx="4.85" ry="4.85" transform="translate(14.07 124.04) rotate(-90)" fill="#008973"/>
    </g>
    <rect x="57.31" y="36.32" width="9.7" height="9.7" rx="4.85" ry="4.85" fill="#008973"/>
  </g>
</svg>