<?xml version="1.0" encoding="UTF-8"?>
<svg id="Ebene_2" data-name="Ebene 2" xmlns="http://www.w3.org/2000/svg" viewBox="0 0 739.93 334.92">
  <g id="Ebene_2-2" data-name="Ebene 2">
    <rect x="0" y="261.89" width="22.83" height="72.24" rx="11.41" ry="11.41" fill="#fff"/>
    <rect x="0" y="232.77" width="22.83" height="22.83" rx="11.41" ry="11.41" fill="#008973"/>
    <rect x="52.68" y="232.77" width="22.83" height="101.37" rx="11.41" ry="11.41" fill="#fff"/>
    <rect x="85.96" y="220.65" width="22.83" height="126.38" rx="11.41" ry="11.41" transform="translate(-159.67 129) rotate(-40)" fill="#fff"/>
    <rect x="119.44" y="261.89" width="22.83" height="72.24" rx="11.41" ry="11.41" fill="#fff"/>
    <rect x="199.19" y="233.24" width="22.83" height="101.37" rx="11.41" ry="11.41" fill="#fff"/>
    <rect x="182.96" y="217.01" width="22.83" height="55.29" rx="11.41" ry="11.41" transform="translate(-50.28 439.03) rotate(-90)" fill="#fff"/>
    <rect x="231.66" y="233.24" width="22.83" height="22.83" rx="11.41" ry="11.41" fill="#008973"/>
    <rect x="119.44" y="232.77" width="22.83" height="22.83" rx="11.41" ry="11.41" fill="#008973"/>
    <rect x="291.26" y="230.64" width="22.83" height="106.42" rx="11.41" ry="11.41" transform="translate(-78.83 120.64) rotate(-20)" fill="#fff"/>
    <rect x="319.84" y="230.72" width="22.83" height="106.42" rx="11.41" ry="11.41" transform="translate(545.43 664.02) rotate(-160)" fill="#fff"/>
    <rect x="348.39" y="230.72" width="22.83" height="106.42" rx="11.41" ry="11.41" transform="translate(-75.41 140.18) rotate(-20)" fill="#fff"/>
    <rect x="371.9" y="259.64" width="22.83" height="76.6" rx="11.41" ry="11.41" transform="translate(641.61 709.02) rotate(-160)" fill="#fff"/>
    <rect x="391.47" y="232.77" width="22.83" height="22.83" rx="11.41" ry="11.41" fill="#008973"/>
    <rect x="443.51" y="232.77" width="22.83" height="101.37" rx="11.41" ry="11.41" fill="#fff"/>
    <rect x="468.28" y="286.53" width="22.83" height="72.37" rx="11.41" ry="11.41" transform="translate(156.98 802.41) rotate(-90)" fill="#fff"/>
    <rect x="468.28" y="245.61" width="22.83" height="72.37" rx="11.41" ry="11.41" transform="translate(197.9 761.49) rotate(-90)" fill="#fff"/>
    <rect x="493.05" y="232.77" width="22.83" height="22.83" rx="11.41" ry="11.41" fill="#008973"/>
    <rect x="453.71" y="222.57" width="22.83" height="43.22" rx="11.41" ry="11.41" transform="translate(220.94 709.3) rotate(-90)" fill="#fff"/>
    <rect x="552.7" y="233.16" width="22.83" height="101.37" rx="11.41" ry="11.41" fill="#fff"/>
    <rect x="577.46" y="286.93" width="22.83" height="72.37" rx="11.41" ry="11.41" transform="translate(265.76 911.99) rotate(-90)" fill="#fff"/>
    <rect x="577.46" y="246" width="22.83" height="72.37" rx="11.41" ry="11.41" transform="translate(306.69 871.06) rotate(-90)" fill="#fff"/>
    <rect x="602.23" y="233.16" width="22.83" height="22.83" rx="11.41" ry="11.41" fill="#008973"/>
    <rect x="562.89" y="222.97" width="22.83" height="43.22" rx="11.41" ry="11.41" transform="translate(329.73 818.88) rotate(-90)" fill="#fff"/>
    <rect x="684.63" y="233.24" width="22.83" height="101.37" rx="11.41" ry="11.41" fill="#fff"/>
    <rect x="668.4" y="217.01" width="22.83" height="55.29" rx="11.41" ry="11.41" transform="translate(435.16 924.47) rotate(-90)" fill="#fff"/>
    <rect x="717.1" y="233.24" width="22.83" height="22.83" rx="11.41" ry="11.41" fill="#008973"/>
    <g>
      <path d="m408.96,128.94c-7.54,17.29-21.41,31.17-38.7,38.71-1.74.76-2.88,2.46-2.88,4.36h0c0,3.41,3.5,5.73,6.63,4.36,19.51-8.5,35.18-24.17,43.68-43.68,1.36-3.13-.95-6.63-4.36-6.63h0c-1.9,0-3.6,1.14-4.36,2.88Z" fill="#008973"/>
      <path d="m367.38,26.18h0c0,1.9,1.14,3.6,2.88,4.36,17.29,7.54,31.17,21.41,38.71,38.7.76,1.74,2.46,2.88,4.36,2.88h0c3.41,0,5.73-3.5,4.36-6.63-8.5-19.51-24.17-35.18-43.68-43.68-3.13-1.36-6.63.95-6.63,4.36Z" fill="#008973"/>
      <path d="m267.5,126.06h0c-3.41,0-5.73,3.5-4.36,6.63,8.5,19.51,24.16,35.19,43.68,43.68,3.13,1.36,6.63-.95,6.63-4.36h0c0-1.9-1.14-3.6-2.88-4.36-17.29-7.54-31.16-21.42-38.7-38.71-.76-1.74-2.46-2.88-4.36-2.88Z" fill="#008973"/>
      <path d="m267.5,72.13h0c1.9,0,3.6-1.14,4.36-2.88,7.54-17.29,21.41-31.17,38.7-38.71,1.74-.76,2.88-2.46,2.88-4.36h0c0-3.41-3.5-5.73-6.63-4.36-19.51,8.5-35.18,24.17-43.68,43.68-1.36,3.13.95,6.63,4.36,6.63Z" fill="#008973"/>
    </g>
    <g>
      <path d="m262.88,98.05c5.25,0,9.52-4.26,9.52-9.52s-4.27-9.52-9.52-9.52-9.52,4.26-9.52,9.52,4.27,9.52,9.52,9.52Zm0-14.28c2.63,0,4.76,2.13,4.76,4.76s-2.13,4.76-4.76,4.76-4.76-2.13-4.76-4.76,2.13-4.76,4.76-4.76Z" fill="#008973"/>
      <path d="m262.88,102.81c-9.2,0-16.66,7.45-16.66,16.66,0,1.31,1.06,2.38,2.38,2.38s2.38-1.06,2.38-2.38c0-6.57,5.33-11.9,11.9-11.9s11.9,5.33,11.9,11.9c0,1.31,1.06,2.38,2.38,2.38s2.38-1.06,2.38-2.38c0-9.2-7.45-16.66-16.65-16.66Z" fill="#008973"/>
    </g>
    <g>
      <path d="m417.74,95.68c5.25,0,9.52-4.26,9.52-9.52s-4.27-9.52-9.52-9.52-9.52,4.26-9.52,9.52,4.27,9.52,9.52,9.52Zm0-14.28c2.63,0,4.76,2.13,4.76,4.76s-2.13,4.76-4.76,4.76-4.76-2.13-4.76-4.76,2.13-4.76,4.76-4.76Z" fill="#008973"/>
      <path d="m417.74,100.43c-9.2,0-16.66,7.45-16.66,16.66,0,1.31,1.06,2.38,2.38,2.38s2.38-1.06,2.38-2.38c0-6.57,5.33-11.9,11.9-11.9s11.9,5.33,11.9,11.9c0,1.31,1.06,2.38,2.38,2.38s2.38-1.06,2.38-2.38c0-9.2-7.45-16.66-16.65-16.66Z" fill="#008973"/>
    </g>
    <g>
      <path d="m342.83,176.77c5.25,0,9.52-4.26,9.52-9.52s-4.27-9.52-9.52-9.52-9.52,4.26-9.52,9.52,4.27,9.52,9.52,9.52Zm0-14.28c2.63,0,4.76,2.13,4.76,4.76s-2.13,4.76-4.76,4.76-4.76-2.13-4.76-4.76,2.13-4.76,4.76-4.76Z" fill="#008973"/>
      <path d="m342.83,181.52c-9.2,0-16.66,7.45-16.66,16.66,0,1.31,1.06,2.38,2.38,2.38s2.38-1.06,2.38-2.38c0-6.57,5.33-11.9,11.9-11.9s11.9,5.33,11.9,11.9c0,1.31,1.06,2.38,2.38,2.38s2.38-1.06,2.38-2.38c0-9.2-7.45-16.66-16.65-16.66Z" fill="#008973"/>
    </g>
    <g>
      <path d="m342.83,19.04c5.25,0,9.52-4.26,9.52-9.52s-4.27-9.52-9.52-9.52-9.52,4.26-9.52,9.52,4.27,9.52,9.52,9.52Zm0-14.28c2.63,0,4.76,2.13,4.76,4.76s-2.13,4.76-4.76,4.76-4.76-2.13-4.76-4.76,2.13-4.76,4.76-4.76Z" fill="#008973"/>
      <path d="m342.83,23.79c-9.2,0-16.66,7.45-16.66,16.66,0,1.31,1.06,2.38,2.38,2.38s2.38-1.06,2.38-2.38c0-6.57,5.33-11.9,11.9-11.9s11.9,5.33,11.9,11.9c0,1.31,1.06,2.38,2.38,2.38s2.38-1.06,2.38-2.38c0-9.2-7.45-16.66-16.65-16.66Z" fill="#008973"/>
    </g>
    <g>
      <rect x="335.29" y="77.92" width="15.08" height="66.95" rx="7.54" ry="7.54" fill="#008973"/>
      <rect x="324.57" y="67.2" width="15.08" height="36.52" rx="7.54" ry="7.54" transform="translate(246.65 417.57) rotate(-90)" fill="#008973"/>
      <rect x="346.01" y="67.2" width="15.08" height="36.52" rx="7.54" ry="7.54" transform="translate(268.09 439.01) rotate(-90)" fill="#008973"/>
    </g>
    <rect x="335.29" y="56.45" width="15.08" height="15.08" rx="7.54" ry="7.54" fill="#008973"/>
  </g>
</svg>