<?xml version="1.0" encoding="UTF-8"?>
<svg id="Ebene_2" data-name="Ebene 2" xmlns="http://www.w3.org/2000/svg" viewBox="0 0 739.93 414.39">
  <g id="Ebene_2-2" data-name="Ebene 2">
    <rect x="0" y="341.35" width="22.83" height="72.24" rx="11.41" ry="11.41" fill="#fff"/>
    <rect x="0" y="312.23" width="22.83" height="22.83" rx="11.41" ry="11.41" fill="#008973"/>
    <rect x="52.68" y="312.23" width="22.83" height="101.37" rx="11.41" ry="11.41" fill="#fff"/>
    <rect x="85.96" y="300.12" width="22.83" height="126.38" rx="11.41" ry="11.41" transform="translate(-210.75 147.59) rotate(-40)" fill="#fff"/>
    <rect x="119.44" y="341.35" width="22.83" height="72.24" rx="11.41" ry="11.41" fill="#fff"/>
    <rect x="199.19" y="312.71" width="22.83" height="101.37" rx="11.41" ry="11.41" fill="#fff"/>
    <rect x="182.96" y="296.48" width="22.83" height="55.29" rx="11.41" ry="11.41" transform="translate(-129.75 518.5) rotate(-90)" fill="#fff"/>
    <rect x="231.66" y="312.71" width="22.83" height="22.83" rx="11.41" ry="11.41" fill="#008973"/>
    <rect x="119.44" y="312.23" width="22.83" height="22.83" rx="11.41" ry="11.41" fill="#008973"/>
    <rect x="291.26" y="310.1" width="22.83" height="106.42" rx="11.41" ry="11.41" transform="translate(-106.01 125.43) rotate(-20)" fill="#fff"/>
    <rect x="319.84" y="310.18" width="22.83" height="106.42" rx="11.41" ry="11.41" transform="translate(518.25 818.16) rotate(-160)" fill="#fff"/>
    <rect x="348.39" y="310.18" width="22.83" height="106.42" rx="11.41" ry="11.41" transform="translate(-102.59 144.98) rotate(-20)" fill="#fff"/>
    <rect x="371.9" y="339.11" width="22.83" height="76.6" rx="11.41" ry="11.41" transform="translate(614.43 863.16) rotate(-160)" fill="#fff"/>
    <rect x="391.47" y="312.23" width="22.83" height="22.83" rx="11.41" ry="11.41" fill="#008973"/>
    <rect x="443.51" y="312.23" width="22.83" height="101.37" rx="11.41" ry="11.41" fill="#fff"/>
    <rect x="468.28" y="366" width="22.83" height="72.37" rx="11.41" ry="11.41" transform="translate(77.51 881.88) rotate(-90)" fill="#fff"/>
    <rect x="468.28" y="325.07" width="22.83" height="72.37" rx="11.41" ry="11.41" transform="translate(118.44 840.95) rotate(-90)" fill="#fff"/>
    <rect x="493.05" y="312.23" width="22.83" height="22.83" rx="11.41" ry="11.41" fill="#008973"/>
    <rect x="453.71" y="302.04" width="22.83" height="43.22" rx="11.41" ry="11.41" transform="translate(141.48 788.77) rotate(-90)" fill="#fff"/>
    <rect x="552.7" y="312.63" width="22.83" height="101.37" rx="11.41" ry="11.41" fill="#fff"/>
    <rect x="577.46" y="366.4" width="22.83" height="72.37" rx="11.41" ry="11.41" transform="translate(186.3 991.46) rotate(-90)" fill="#fff"/>
    <rect x="577.46" y="325.47" width="22.83" height="72.37" rx="11.41" ry="11.41" transform="translate(227.23 950.53) rotate(-90)" fill="#fff"/>
    <rect x="602.23" y="312.63" width="22.83" height="22.83" rx="11.41" ry="11.41" fill="#008973"/>
    <rect x="562.89" y="302.43" width="22.83" height="43.22" rx="11.41" ry="11.41" transform="translate(250.26 898.35) rotate(-90)" fill="#fff"/>
    <rect x="684.63" y="312.71" width="22.83" height="101.37" rx="11.41" ry="11.41" fill="#fff"/>
    <rect x="668.4" y="296.48" width="22.83" height="55.29" rx="11.41" ry="11.41" transform="translate(355.7 1003.94) rotate(-90)" fill="#fff"/>
    <rect x="717.1" y="312.71" width="22.83" height="22.83" rx="11.41" ry="11.41" fill="#008973"/>
    <g>
      <path d="m473.44,195.23c-11.41,26.17-32.42,47.2-58.6,58.61-2.64,1.15-4.36,3.73-4.36,6.6h0c0,5.17,5.3,8.67,10.04,6.61,29.55-12.86,53.27-36.59,66.13-66.14,2.06-4.74-1.44-10.04-6.61-10.04h0c-2.88,0-5.45,1.72-6.6,4.36Z" fill="#008973"/>
      <path d="m410.49,39.65h0c0,2.88,1.72,5.46,4.36,6.61,26.17,11.41,47.2,32.42,58.61,58.6,1.15,2.64,3.73,4.36,6.6,4.36h0c5.17,0,8.67-5.3,6.61-10.04-12.86-29.55-36.59-53.27-66.14-66.13-4.74-2.06-10.04,1.44-10.04,6.61Z" fill="#008973"/>
      <path d="m259.27,190.87h0c-5.17,0-8.67,5.3-6.61,10.04,12.86,29.55,36.58,53.28,66.13,66.14,4.74,2.06,10.04-1.44,10.04-6.61h0c0-2.88-1.72-5.45-4.36-6.6-26.17-11.41-47.18-32.44-58.6-58.61-1.15-2.64-3.73-4.36-6.6-4.36Z" fill="#008973"/>
      <path d="m259.26,109.21h0c2.88,0,5.45-1.72,6.6-4.36,11.41-26.17,32.42-47.2,58.6-58.61,2.64-1.15,4.36-3.73,4.36-6.6h0c0-5.17-5.3-8.67-10.04-6.61-29.55,12.86-53.27,36.59-66.13,66.14-2.06,4.74,1.44,10.04,6.61,10.04Z" fill="#008973"/>
    </g>
    <g>
      <path d="m252.26,148.46c7.95,0,14.41-6.45,14.41-14.41s-6.46-14.41-14.41-14.41-14.41,6.45-14.41,14.41,6.46,14.41,14.41,14.41Zm0-21.62c3.98,0,7.21,3.23,7.21,7.21s-3.23,7.21-7.21,7.21-7.21-3.23-7.21-7.21,3.23-7.21,7.21-7.21Z" fill="#008973"/>
      <path d="m252.26,155.66c-13.93,0-25.22,11.29-25.22,25.22,0,1.99,1.61,3.6,3.6,3.6s3.6-1.61,3.6-3.6c0-9.94,8.07-18.01,18.01-18.01s18.02,8.07,18.02,18.02c0,1.99,1.61,3.6,3.6,3.6s3.6-1.61,3.6-3.6c.01-13.93-11.27-25.23-25.21-25.23Z" fill="#008973"/>
    </g>
    <g>
      <path d="m486.74,144.87c7.95,0,14.41-6.45,14.41-14.41s-6.46-14.41-14.41-14.41-14.41,6.45-14.41,14.41,6.46,14.41,14.41,14.41Zm0-21.62c3.98,0,7.21,3.23,7.21,7.21s-3.23,7.21-7.21,7.21-7.21-3.23-7.21-7.21,3.23-7.21,7.21-7.21Z" fill="#008973"/>
      <path d="m486.74,152.06c-13.93,0-25.22,11.29-25.22,25.22,0,1.99,1.61,3.6,3.6,3.6s3.6-1.61,3.6-3.6c0-9.94,8.07-18.01,18.01-18.01s18.02,8.07,18.02,18.02c0,1.99,1.61,3.6,3.6,3.6s3.6-1.61,3.6-3.6c.01-13.93-11.27-25.23-25.21-25.23Z" fill="#008973"/>
    </g>
    <g>
      <path d="m373.32,267.65c7.95,0,14.41-6.45,14.41-14.41s-6.46-14.41-14.41-14.41-14.41,6.45-14.41,14.41,6.46,14.41,14.41,14.41Zm0-21.62c3.98,0,7.21,3.23,7.21,7.21s-3.23,7.21-7.21,7.21-7.21-3.23-7.21-7.21,3.23-7.21,7.21-7.21Z" fill="#008973"/>
      <path d="m373.32,274.85c-13.93,0-25.22,11.29-25.22,25.22,0,1.99,1.61,3.6,3.6,3.6s3.6-1.61,3.6-3.6c0-9.94,8.07-18.01,18.01-18.01s18.02,8.07,18.02,18.02c0,1.99,1.61,3.6,3.6,3.6s3.6-1.61,3.6-3.6c.01-13.93-11.27-25.23-25.21-25.23Z" fill="#008973"/>
    </g>
    <g>
      <path d="m373.32,28.83c7.95,0,14.41-6.45,14.41-14.41s-6.46-14.41-14.41-14.41-14.41,6.45-14.41,14.41,6.46,14.41,14.41,14.41Zm0-21.62c3.98,0,7.21,3.23,7.21,7.21s-3.23,7.21-7.21,7.21-7.21-3.23-7.21-7.21,3.23-7.21,7.21-7.21Z" fill="#008973"/>
      <path d="m373.32,36.02c-13.93,0-25.22,11.29-25.22,25.22,0,1.99,1.61,3.6,3.6,3.6s3.6-1.61,3.6-3.6c0-9.94,8.07-18.01,18.01-18.01s18.02,8.07,18.02,18.02c0,1.99,1.61,3.6,3.6,3.6s3.6-1.61,3.6-3.6c.01-13.93-11.27-25.23-25.21-25.23Z" fill="#008973"/>
    </g>
    <g>
      <rect x="361.91" y="117.98" width="22.83" height="101.37" rx="11.41" ry="11.41" fill="#008973"/>
      <rect x="345.68" y="101.74" width="22.83" height="55.29" rx="11.41" ry="11.41" transform="translate(227.7 486.48) rotate(-90)" fill="#008973"/>
      <rect x="378.14" y="101.74" width="22.83" height="55.29" rx="11.41" ry="11.41" transform="translate(260.16 518.94) rotate(-90)" fill="#008973"/>
    </g>
    <rect x="361.91" y="76.38" width="22.83" height="22.83" rx="11.41" ry="11.41" fill="#008973"/>
  </g>
</svg>